<svg xmlns="http://www.w3.org/2000/svg" width="270.941" height="168.918" viewBox="0 0 270.941 168.918">
  <path id="Path_9122" data-name="Path 9122" d="M34.692-6.216c-.5-2.058-4.662-5.8-11.046-8.988a81.435,81.435,0,0,0,5.46-8.358A5.027,5.027,0,0,1,30.282-24.7a1.373,1.373,0,0,0,.5-.924c0-1.092-3.192-3.108-4.284-3.108-.252,0-.42.042-1.218.546a2.452,2.452,0,0,1-.924.336c-3.4.5-6.678,1.6-8.988,1.932a7.763,7.763,0,0,1-.966.042,5.544,5.544,0,0,1-3.528-1.218,1.285,1.285,0,0,0-.63-.294c-.462,0-.672.588-.672,1.05,0,1.428,2.9,4.074,5.712,4.074a4.067,4.067,0,0,0,1.89-.588,55.307,55.307,0,0,1,8.106-2.646c.084,0,.21.042.21.168,0,.042-.042.042-.042.084C21.546-17.3,15.876-8.484,5.04-2.688c-.882.462-1.26.84-1.26,1.05q0,.252.5.252c.924,0,10.5-2.814,18.564-12.768A28.968,28.968,0,0,1,30.912-3.822c.63,1.218,1.386,1.806,2.1,1.806,1.218,0,1.806-1.6,1.806-3.024A5.6,5.6,0,0,0,34.692-6.216ZM78.414-25.452a1.866,1.866,0,0,0-1.008.378,8.942,8.942,0,0,1-1.554.588c-3.864.462-10.794,1.26-16.3,2.058a19.005,19.005,0,0,1-3.318.378A7.586,7.586,0,0,1,52-23.394a.887.887,0,0,0-.546-.294c-.21,0-.714.42-.714,1.26,0,2.184,4.326,4.242,6.888,4.242a7.868,7.868,0,0,0,2.6-.714c3.822-1.3,16.464-3.066,16.716-3.066.126,0,.252.042.252.168,0,.462-4.662,5.838-8.274,9.156-2.478-1.47-6.8-3.444-8.526-3.444-.462,0-.756.126-.756.336s.294.546.924.84a26.626,26.626,0,0,1,9.954,9.618c.462.882,1.428,2.31,2.562,2.31A2.222,2.222,0,0,0,74.928-5.46c0-1.26-.21-3.234-4.242-6.09a131.31,131.31,0,0,0,10.458-8.064,8.2,8.2,0,0,1,.63-.546c1.05-.378,1.68-.8,1.68-1.428C83.454-23.436,79.254-25.452,78.414-25.452ZM129.4-9.366c-1.3-2.9-7.728-7.35-9.114-7.35-.294,0-.42.084-.42.294a1.474,1.474,0,0,0,.588.924c2.772,2.6,4.116,5.334,5.418,8.862.42,1.134,1.218,1.848,2.016,1.848,1.512,0,1.848-1.806,1.848-2.814A4.256,4.256,0,0,0,129.4-9.366ZM123.774-23.94a3.622,3.622,0,0,0-1.68.672,1.191,1.191,0,0,1-.546.168c-1.806.294-3.192.42-5.166.672a17.38,17.38,0,0,1,.546-4.578,3.393,3.393,0,0,0,.294-1.134c0-1.722-3.444-2.646-4.788-2.646-1.26,0-2.142.63-2.142,1.008,0,.252.294.462,1.008.588,1.554.294,1.806.8,1.974,2.73.042,1.05.168,2.6.168,4.368-2.352.294-4.62.672-6.468.84a4.075,4.075,0,0,1-.714.042,7.857,7.857,0,0,1-4.83-1.68c-.336-.21-.546-.378-.756-.378-.462,0-.756.882-.756,1.218,0,.882,2.268,4.074,5.166,4.074a11.955,11.955,0,0,0,2.94-.63,54.5,54.5,0,0,1,5.46-1.092c0,.924.042,1.89.042,2.814,0,3.318-.126,6.594-.252,10.038-.042.462-.21.588-.42.588-.084,0-.168-.042-.252-.042a29.331,29.331,0,0,1-4.158-2.1,1.733,1.733,0,0,0-.8-.252.453.453,0,0,0-.5.462,1.312,1.312,0,0,0,.63.966c1.3,1.008,3.612,2.982,4.326,4.662.756,1.68,1.134,2.394,2.1,2.394,2.226,0,2.646-3.99,2.646-4.956a2.219,2.219,0,0,0-.042-.546,11.355,11.355,0,0,1-.336-1.722c-.084-3.36-.21-6.552-.21-10.08,0-.8.042-1.638.042-2.52,2.142-.21,4.032-.336,6.006-.336a22.192,22.192,0,0,1,2.94.294,8.383,8.383,0,0,0,1.554.168c1.134,0,1.764-.42,1.764-1.344C128.562-22.89,124.572-23.94,123.774-23.94Zm-16.212,8.484c0-.756-.21-1.05-.5-1.05s-.63.378-.8.966a11.066,11.066,0,0,1-6.09,7.266A2.626,2.626,0,0,0,98.406-5.88a1.877,1.877,0,0,0,1.848,2.016C102.606-3.864,107.562-8.316,107.562-15.456ZM152.67-28.644a31.5,31.5,0,0,0-5.628-5.5l-2.184,1.764a26.266,26.266,0,0,1,5.5,6.006Zm-1.764,9.45a35.907,35.907,0,0,0-6.3-5.754l-2.142,1.68a33.415,33.415,0,0,1,6.09,6.3ZM180.138-.714A21.333,21.333,0,0,1,167.79-13.608c4.2,0,7.854.042,11.844.168v-3.108c-1.47.084-2.982.126-4.452.126V-27.51H165.69c0-1.68.042-3.024.042-3.654a4.294,4.294,0,0,1,.336-1.47c.21-.294.42-.546.42-.756s-.126-.336-.462-.42a23.789,23.789,0,0,0-3.528-.5c-.168,0-.252.042-.252.168,0,.252.168.672.21,1.092.042.756.126,2.9.126,5.544-3.066,0-6.384-.084-8.316-.168v3.066c2.1-.084,5.46-.126,8.316-.126v2.058c0,2.394-.042,4.788-.21,6.384-1.764-.042-3.486-.042-5.208-.084-1.68-.042-3.36-.126-5-.168v3.108c3.066-.084,6.426-.126,9.744-.168C160.1-7.392,156.072-3.57,149.73-.462A8.86,8.86,0,0,1,151.7,2.394c6.972-3.99,11.55-8.736,13.272-15.288A25.561,25.561,0,0,0,178.248,2.394,9.658,9.658,0,0,1,180.138-.714ZM151.494-12.558,149.1-14.994c-1.386,4.452-3.864,11.592-5.838,13.9-.294.336-.42.462-.42.63,0,.084.084.126.168.294a14.306,14.306,0,0,0,1.974,1.932.9.9,0,0,0,.5.21c.252,0,.336-.42.5-.966a7.509,7.509,0,0,1,.546-1.344A123.235,123.235,0,0,0,151.494-12.558Zm20.58-3.78c-2.268.042-4.242.042-6.51.042.126-2.226.168-5.5.126-8.484h6.384Zm29.442-11.844a43,43,0,0,0-6.636-5.754l-2.142,2.058a39.312,39.312,0,0,1,6.384,6.09Zm25.578,8.19a37.583,37.583,0,0,1-10.164-2.016,18.482,18.482,0,0,0,5.04-6.426c1.512.042,2.982.084,4.536.126v-2.856c-3.948.168-7.77.252-11.424.252a5.777,5.777,0,0,1,.336-1.89,2.332,2.332,0,0,0,.294-.8c0-.168-.126-.294-.378-.336a28.44,28.44,0,0,0-3.36-.336h-.168c-.252,0-.294.042-.294.168,0,.21.168.588.21,1.176a8.226,8.226,0,0,1,.21,2.016c-1.722-.042-3.444-.042-5.208-.084-1.722-.042-3.486-.126-5.292-.168v2.856c1.344-.042,2.688-.084,4.032-.084a23.08,23.08,0,0,0,5.964,6.384,32.915,32.915,0,0,1-11.214,2.1,10.837,10.837,0,0,1,1.428,3.066c5.166-.63,9.324-1.6,12.726-3.4a42.492,42.492,0,0,0,11.3,3.444A13.327,13.327,0,0,1,227.094-19.992Zm-28.812.924a37.1,37.1,0,0,0-6.762-5.838l-2.058,2.016a39.161,39.161,0,0,1,6.468,6.216Zm25.074,2.982c0-.21-.084-.378-.462-.42a24.48,24.48,0,0,0-3.066-.42h-.042c-.252,0-.336.084-.336.252a2.735,2.735,0,0,0,.168.756,1.819,1.819,0,0,1,.042.21,11.5,11.5,0,0,1,.126,1.722H207.732a3.173,3.173,0,0,1,.378-1.554c.336-.714.252-.8-.252-.924a19.97,19.97,0,0,0-2.982-.378h-.168c-.168,0-.252.042-.252.252,0,.126.084.378.126.8a26.531,26.531,0,0,1,.168,2.94,22.417,22.417,0,0,1-.756,6.09,9.881,9.881,0,0,1-5.418,6.468,9.486,9.486,0,0,1,1.974,2.73,13.915,13.915,0,0,0,6.006-7.224h13.272c0,2.562-.084,5.166-.21,7.224h3.276c-.126-4.158-.21-9.324-.21-12.768,0-1.512.042-2.73.042-3.36a3.175,3.175,0,0,1,.42-1.722A1.727,1.727,0,0,0,223.356-16.086Zm-22.68,4.074L198.408-14.7c-2.1,5-5.418,10.71-7.686,13.188-.294.336-.588.42-.588.63a.864.864,0,0,0,.21.378,20.822,20.822,0,0,0,2.058,2.31c.252.21.378.294.546.294.21,0,.378-.252.5-.84a7.747,7.747,0,0,1,.63-1.47C195.888-3.024,198.324-7.392,200.676-12.012Zm17.892-16.464a14,14,0,0,1-4.494,5.124,16.061,16.061,0,0,1-5.25-5.124C212.1-28.518,215.334-28.518,218.568-28.476Zm1.26,21.084h-12.6a35.333,35.333,0,0,0,.42-3.99h12.18Zm48.678-17.094a.627.627,0,0,0-.42.126.284.284,0,0,0-.168.252c0,.168.168.42.5.672a11.771,11.771,0,0,1,3.7,4.662c.336.84.8,1.176,1.26,1.176.714,0,1.344-.882,1.344-1.89C274.722-22.344,269.178-24.486,268.506-24.486ZM264.1-22.6c-.462,0-.546.252-.546.378,0,.21.21.462.5.714a11.167,11.167,0,0,1,3.486,4.746c.336.882.8,1.218,1.26,1.218.756,0,1.428-.924,1.428-1.932C270.228-19.824,265.482-22.6,264.1-22.6Zm1.428-7.9a3.118,3.118,0,0,0-1.722.546,4.119,4.119,0,0,1-.966.378A115.945,115.945,0,0,0,246.2-25.452a7.452,7.452,0,0,1-2.352.378,7.325,7.325,0,0,1-3.822-1.092l-.21-.126a.967.967,0,0,0-.378-.126c-.21,0-.672.21-.672,1.092,0,2.52,3.948,4.074,6.09,4.074a6.346,6.346,0,0,0,3.318-1.176,45.22,45.22,0,0,1,9.828-3.906c-3.612,2.856-7.266,7.434-7.266,13.23,0,8.148,7.9,12.81,12.642,12.81,1.008,0,3.738-.168,3.738-2.268,0-1.806-2.73-2.73-4.032-2.73h-.252a4.366,4.366,0,0,1-.882.126c-2.6,0-8.82-2.562-8.82-8.694,0-6.8,7.014-11.592,11.088-12.1a22.526,22.526,0,0,1,2.982-.252c.294,0,.63.042.924.042h.252c1.344,0,2.142-.672,2.142-1.554C270.522-29.778,266.448-30.492,265.524-30.492ZM37.59,50.628c-1.344-6.342-7.98-9.7-10.374-9.7-.5,0-.84.168-.84.42,0,.21.252.462.8.756,3.276,1.764,5.754,6.3,6.342,9.618.252,2.142.588,3.612,1.89,3.612,1.386,0,2.352-1.6,2.352-3.276A5.75,5.75,0,0,0,37.59,50.628Zm-18.27.252a6.4,6.4,0,0,0,.168-1.344c0-.462-.084-.672-.252-.672-.252,0-.63.5-1.092,1.6-1.05,2.52-1.974,5.082-3.108,7.224-.336.672-.756,1.092-1.386,1.092-.8,0-4.368-.8-4.368-7.77A27.062,27.062,0,0,1,9.828,45.8a6.952,6.952,0,0,0,.126-1.344,5.071,5.071,0,0,0-4.326-5.04,1.839,1.839,0,0,0-.882.168.154.154,0,0,0-.042.126,2.068,2.068,0,0,0,.546.966C5.964,41.6,6.3,43.53,6.3,45.8c0,1.05-.042,2.016-.042,2.982,0,3.99.252,7.434,2.268,10.542a10.673,10.673,0,0,0,7.9,4.494,2.365,2.365,0,0,0,2.6-2.058,4.362,4.362,0,0,0-.546-1.764,3.08,3.08,0,0,1-.336-1.428A60.927,60.927,0,0,1,19.32,50.88ZM73.332,40.548a26.336,26.336,0,0,0-8.568,1.638c-2.562.924-4.914,2.31-7.14,3.36a9.846,9.846,0,0,1-4.158,1.134,3.291,3.291,0,0,1-1.932-.588.505.505,0,0,0-.336-.084c-.252,0-.42.294-.588.63a.715.715,0,0,0-.042.294c0,2.352,3.528,3.906,5.418,3.906A4.4,4.4,0,0,0,58.8,49.662c.882-.714,1.722-1.47,2.6-2.142,2.562-2.016,6.51-4.536,11.34-4.536,4.578,0,8.022,2.226,8.022,6.09,0,5.8-6.216,11.088-18.984,12.684-1.806.21-3.15.588-3.15.882,0,.462,2.856.462,3.738.462,12.852,0,22.638-4.914,22.638-13.1C85.008,42.564,77.364,40.548,73.332,40.548Zm43.722,4.368c-.21,0-.294.084-.294.21,0,.252.252.63.84,1.176,1.89,1.764,5.418,5.754,5.418,10.206,0,5.838-4.452,7.938-6.468,7.938-2.142,0-4.494-1.638-4.494-5.964,0-.462,0-.966.042-1.428.462.042.924.042,1.428.042,3.36,0,4.956-.588,4.956-1.848,0-1.008-.966-1.6-2.94-1.6a2.053,2.053,0,0,0-.546.042c-.42.042-1.26.294-1.722.336-.294,0-.588.042-.924.042.168-1.134.42-2.9,1.134-6.51h.21a1.207,1.207,0,0,0,1.3-1.176,1.932,1.932,0,0,0-1.05-1.6c.462-1.806,1.008-3.486,1.428-5.376.126-.546.42-1.092.588-1.638a1.9,1.9,0,0,0,.126-.672c0-1.512-3.444-3.78-4.872-3.78-.462,0-1.722.336-1.722.882,0,.21.252.462.882.63a2.6,2.6,0,0,1,1.638,2.1,6.612,6.612,0,0,1,.084,1.05,52.787,52.787,0,0,1-.756,6.174c-.882-.084-1.722-.084-2.478-.084-.672.042-1.344.084-2.016.084-2.226,0-2.9-.8-2.982-.882-.588-.756-1.092-1.092-1.344-1.092-.126,0-.21.084-.21.294a3.67,3.67,0,0,0,.42,1.386c1.218,2.772,3.444,3.024,5.712,3.024-1.974,1.974-3.36,3.57-3.36,5.25,0,.126.084,3.36,4.62,4.494V58.44c0,4.83,2.772,8.778,6.972,8.778,3.234,0,10.122-2.856,10.122-9.87S118.188,44.916,117.054,44.916Zm-6.3,2.982-.126.8a42.932,42.932,0,0,0-.714,5.124c-.5-.084-3.108-.63-3.108-2.1C106.806,50.208,109.788,48.15,110.754,47.9Zm42.63-9.072a37.4,37.4,0,0,0-6.468-6.426L144.9,34.416a42.527,42.527,0,0,1,6.09,6.678Zm23.73,2.31V33.45H155.946v7.686Zm2.94,4.284V42.606c-5,.21-9.618.294-14.154.294-4.284,0-8.526-.084-12.768-.294V45.42C161.994,45.168,170.352,45.168,180.054,45.42Zm-.168,15.2a22.542,22.542,0,0,1-6.09-1.932,13.409,13.409,0,0,0,3.486-2.058,2.672,2.672,0,0,1,1.092-.546c.336-.084.5-.252.5-.42a.425.425,0,0,0-.168-.294,17.225,17.225,0,0,0-2.1-1.47.271.271,0,0,0-.21-.084c-.168,0-.252.21-.42.462a14.557,14.557,0,0,1-4.284,3.15,8.092,8.092,0,0,1-2.6-2.9h6.678V47.1H156.954v7.434h5.67a27.818,27.818,0,0,1-8.9,3.36,9.549,9.549,0,0,1,1.6,2.562c1.218-.42,2.856-1.05,4.578-1.848A35.737,35.737,0,0,0,163.17,56.8c-.042,2.142-.084,5.292-.168,6.426h3.108c-.126-1.764-.126-6.468-.126-8.694h.336c2.52,4.746,5.712,6.846,11.97,8.694A14.277,14.277,0,0,1,179.886,60.624Zm1.092,2.982c-4.326.378-9.828.588-14.91.588-2.352,0-4.62-.042-6.636-.126-2.982-.168-5.67-1.008-7.476-3.318V46.974h-2.142a54.657,54.657,0,0,1-6.006-.21v3.192c1.848-.168,3.7-.168,4.494-.168h.588v11.3a17.5,17.5,0,0,1-5,3.528c-.42.126-.63.168-.63.378,0,.126.042.168.126.378.294.672.8,1.89,1.218,2.646a.75.75,0,0,0,.5.378c.21,0,.42-.294.672-.756a4.264,4.264,0,0,1,.924-1.008A49.6,49.6,0,0,0,150.57,63.1a11.5,11.5,0,0,0,8.778,3.948c3.15.126,8.232.126,12.558.126,4.368,0,7.9-.042,7.9-.042A22.376,22.376,0,0,1,180.978,63.606Zm-6.594-24.7H170.73V35.634h3.654Zm-6.216,0H164.64V35.634h3.528Zm-6.09,0h-3.4V35.634h3.4Zm10.71,13.272H159.936v-2.73h12.852Zm49.686-14.7v-3.4c-9.2.378-17.43.378-26.334,0v3.4C204.918,37.146,213.36,37.146,222.474,37.482Zm5.544,20.37a14.278,14.278,0,0,1-3.15-1.638c-.588,6.048-1.218,7.56-2.226,7.728a19.453,19.453,0,0,1-2.73.168,22.572,22.572,0,0,1-2.94-.168c-.21-.042-.336-.084-.5-.126a1.069,1.069,0,0,1-.756-1.092v-14.7c3.822.042,7.434.084,11,.21V44.706c-11.34.42-23.688.42-34.65,0v3.528c3.108-.084,6.636-.126,10.08-.168-.462,8.9-1.932,14.448-11.844,17.346a10.8,10.8,0,0,1,1.638,2.94c12.012-3.78,12.768-11.676,13.4-20.328,2.52-.042,4.494-.042,7.056-.042v15.2c0,1.848.672,3.528,2.9,3.7a38.517,38.517,0,0,0,8.232,0C225.918,66.672,226.968,65.118,228.018,57.852ZM33.432,121c0-1.932-1.68-4.494-3.99-6.93-1.218-1.26-3.192-3.024-5.082-4.83,5.334-2.184,5.712-3.738,5.712-4.368a1.717,1.717,0,0,0-1.848-1.6c-.126,0-.21.042-.336.042a13.125,13.125,0,0,1-1.68.126,14.838,14.838,0,0,1-2.772-.84c-.462-.21-.966-.462-1.344-.588a23.331,23.331,0,0,1-2.982-1.764,4.027,4.027,0,0,0-1.932-.42c-1.47,0-1.806.756-1.806,1.554,0,2.31,1.26,3.486,4.032,6.09l.126.084a22.876,22.876,0,0,1-5.838.882,10.374,10.374,0,0,1-5.838-1.554.558.558,0,0,0-.294-.126c-.084,0-.126.126-.126.294v.168c.63,3.36,3.024,4.284,6.216,4.284a28.215,28.215,0,0,0,8.61-1.512c2.73,2.436,5.754,5.376,6.762,8.022a4.547,4.547,0,0,1,.21.8c0,.168-.252.336-.462.336h-.084a70.875,70.875,0,0,0-7.56-.5c-11.466,0-11.55,6.048-11.55,6.8,0,3.654,5.208,7.854,13.062,7.854,5.8,0,5.88-1.974,5.88-2.436,0-1.638-1.974-2.1-3.486-2.1a4.929,4.929,0,0,0-1.218.126,12.821,12.821,0,0,1-3.276.5c-3.738,0-8.358-1.638-8.358-4.41,0-1.554,1.176-4.116,7.14-4.116,3.528,0,7.812.8,9.786,2.226a4.248,4.248,0,0,0,2.268,1.008,1.972,1.972,0,0,0,1.848-1.176A5.843,5.843,0,0,0,33.432,121ZM25.074,105.12c0,.42-.462.714-3.108,1.68-1.428-1.68-2.73-3.444-2.73-4.158a.341.341,0,0,1,.294-.378h.042c.294.042.588.126.966.21C25.074,104.574,25.074,104.574,25.074,105.12Zm62.79,18.816a.223.223,0,0,0-.252-.252,3.067,3.067,0,0,0-1.386.714,8.961,8.961,0,0,1-5.208,2.184c-2.562,0-3.234-1.932-3.234-4.7,0-3.444.84-6.888,1.092-10.332V111c0-.378,0-5.208-4.746-5.208-3.99,0-9.156,5.754-12.012,8.946l.084-.672c.8-1.218,1.68-2.436,1.932-2.856a2.346,2.346,0,0,0,.42-1.176c0-.756-.672-1.134-1.554-1.3a18.758,18.758,0,0,1,1.344-4.242,3.208,3.208,0,0,0,.42-1.554c0-2.184-2.436-3.864-4.494-3.864-.084,0-1.638,0-1.638.63,0,.21.168.42.672.63a3.47,3.47,0,0,1,1.89,3.234,6,6,0,0,1-.126,1.218c-.294,1.344-.5,2.814-.714,4.368-1.428.672-2.394,1.386-3.7,2.016a4.517,4.517,0,0,1-1.932.462,5.032,5.032,0,0,1-1.512-.21c-.294-.084-.5-.252-.672-.252-.126,0-.252.084-.42.336a.676.676,0,0,0-.126.462c0,2.352,3.864,2.646,3.99,2.646a3.553,3.553,0,0,0,2.73-1.3,7.806,7.806,0,0,1,1.344-1.3c-.042.5-.084,1.008-.126,1.554a89.785,89.785,0,0,1-4.536,8.064,38.647,38.647,0,0,1-4.452,5.67,1.388,1.388,0,0,0-.462,1.008,2.044,2.044,0,0,0,2.058,1.848,3,3,0,0,0,2.52-1.26,14.164,14.164,0,0,0,.588-1.344c.084-.294.378-.924.756-1.806a24.061,24.061,0,0,1,2.73,5.124c.336.882.63,2.562,1.848,2.562,1.638,0,1.89-2.268,1.89-3.99a17.809,17.809,0,0,0-.336-2.772,24.1,24.1,0,0,1-.672-6.51c0-.714,0-1.428.042-2.142,1.05-1.218,2.268-2.646,3.318-3.99,4.242-5.334,7.434-6.384,8.526-6.384,1.176,0,1.89.882,1.89,2.9a6.2,6.2,0,0,1-.042.882c-.294,3.612-1.344,7.392-1.344,11,0,6.972,4.536,7.35,6.09,7.35C85.26,129.774,87.864,124.4,87.864,123.936ZM59.6,120.2c-.042,1.386-.084,2.688-.084,3.822,0,.8.042,1.554.042,2.226,0,.294-.084.42-.21.42a.5.5,0,0,1-.336-.168c-.714-.63-1.344-1.344-2.058-1.932.294-.672.672-1.428,1.008-2.226C58.59,121.5,59.052,120.828,59.6,120.2Zm68.67,2.058c0-4.326-3.948-7.9-9.534-7.9a21.207,21.207,0,0,0-7.938,1.722c2.562-2.814,6.216-6.384,9.87-9.744.714-.714,2.016-1.6,2.016-2.688,0-1.554-2.436-3.024-4.41-3.024-.966,0-1.092.42-1.764.63-1.092.378-3.528,1.554-4.872,2.058a6.726,6.726,0,0,1-2.226.462,4.054,4.054,0,0,1-2.184-.63c-.63-.5-.672-.5-.714-.5s-.588.168-.588,1.05c0,2.478,3.444,3.486,4.872,3.486a2.741,2.741,0,0,0,2.226-1.008c.8-.882,3.654-3.234,4.7-3.234a.579.579,0,0,1,.63.546c0,.378-1.722,3.318-10.542,12.81-.462.462-2.856,2.73-5.46,4.914a2.025,2.025,0,0,0-.462,1.3c0,.294.168,1.6,1.932,1.6a3.449,3.449,0,0,0,2.436-.714c1.092-1.6,5.5-7.056,12.012-7.056,3.612,0,6.216,2.478,6.216,5.544,0,2.6-1.89,6.132-6.3,7.476-.252-3.486-3.318-5.418-6.552-5.418-2.226,0-5.292.924-5.292,3.738,0,2.73,2.94,5.25,8.19,5.25C122.514,132.924,128.268,128.052,128.268,122.256Zm-13.188,7.728a10.233,10.233,0,0,1-1.134.042c-2.94,0-5.082-1.176-5.082-2.352,0-1.092,1.05-1.47,2.52-1.47C113.484,126.2,115,127.506,115.08,129.984Zm62.748-17.892c0-3.318-3.864-6.006-6.888-6.006-.5,0-.8.126-.8.336,0,.168.21.378.8.63a4,4,0,0,1,2.226,2.436c0,.252-.252.336-.714.5-5.838,2.394-6.468,4.326-6.468,10,0,1.428.042,2.94.084,3.99a16.283,16.283,0,0,0-3.234-.252c-5.418,0-7.56,2.31-7.56,4.7,0,3.276,4.158,4.788,6.594,4.788a7.033,7.033,0,0,0,7.014-5.586,11.281,11.281,0,0,1,3.528,3.15,2.729,2.729,0,0,0,2.1,1.386c1.176,0,1.386-1.26,1.386-1.722,0-2.688-3.528-4.62-6.846-5.8-.042-.714-.126-1.512-.21-2.268-.5-4.326-.546-5.544-.546-5.88,0-1.6.462-3.99,3.78-3.99a4.414,4.414,0,0,1,3.15,1.092,1.579,1.579,0,0,0,1.134.588C176.442,114.192,177.828,114.066,177.828,112.092Zm-12.012-8.484c0-.8-.882-1.3-1.764-1.3a2.061,2.061,0,0,0-1.3.378,10.224,10.224,0,0,1-2.226,1.176l.168-.42c.21-.546.42-1.05.672-1.6a1.922,1.922,0,0,0,.336-1.008c0-1.3-1.89-2.6-3.654-2.6a2.161,2.161,0,0,0-2.268,1.386c0,.168.168.336.63.42.63.126,1.638.294,1.638,1.722a16.017,16.017,0,0,1-.462,2.9,15.834,15.834,0,0,1-2.436.168,9.666,9.666,0,0,1-5.544-1.386.71.71,0,0,0-.21-.084c-.084,0-.126.042-.126.168,0,1.89,1.26,4.2,5.712,4.2.546,0,1.134-.042,1.722-.084a39.839,39.839,0,0,1-6.258,10.878,8.089,8.089,0,0,0-1.386,3.57v.084c0,1.176.546,1.806,1.26,1.806,1.848,0,3.444-2.646,9.072-16.716C164.346,106.212,165.816,104.658,165.816,103.608Zm.168,22.848a4.384,4.384,0,0,1-4.452,3.78c-2.562,0-4.326-.882-4.326-2.226,0-1.008,1.26-2.058,5.04-2.058A12.917,12.917,0,0,1,165.984,126.456Zm56.868-3.612c0-4.2-3.864-7.644-9.114-7.644-2.184,0-6.09.588-10.962,4.116a1.08,1.08,0,0,1-.588.21c-.294,0-.546-.168-.546-.8v-.084c.084-1.512.294-3.234.294-4.788a28.244,28.244,0,0,0-.294-4.2,5.9,5.9,0,0,1-.084-.756c0-1.89,1.3-2.394,2.856-2.394a16.592,16.592,0,0,1,3.738.588,11.933,11.933,0,0,0,2.016.252,1.689,1.689,0,0,0,1.764-1.89c0-2.1-2.31-3.108-3.4-3.57a13.073,13.073,0,0,1-3.948-2.73c-.462-.672-.8-1.008-.966-1.008-.252,0-.378,1.008-.378,1.386,0,1.932,1.428,3.612,1.722,4.158a.154.154,0,0,1,.042.126.261.261,0,0,1-.168.252c-4.578,1.764-5.334,3.906-5.334,6.426-.042.63-.084,1.3-.126,1.806-.21,2.31-.84,5.5-1.05,9.45,0,.252-.042.462-.042.714v.126a2.939,2.939,0,0,0,2.9,3.192c.924,0,1.554-1.134,1.806-1.68,2.1-3.822,6.09-6.8,10.248-6.8,3.654,0,5.67,2.226,5.67,4.956,0,5.922-7.518,9.2-14.7,10.29-1.008.168-1.428.336-1.428.5,0,.21.63.378,1.722.378h.462C216.972,133.428,222.852,128.22,222.852,122.844Zm26.124,6.216a5.544,5.544,0,1,0-5.544,5.544A5.539,5.539,0,0,0,248.976,129.06Zm-1.638,0a3.906,3.906,0,1,1-3.906-3.906A3.926,3.926,0,0,1,247.338,129.06Z" transform="translate(-3.78 34.314)" fill="#fff"/>
</svg>
